<?xml version="1.0" encoding="UTF-8"?>
<svg xmlns="http://www.w3.org/2000/svg" width="960" height="540" viewBox="0 0 960 540">
<rect width="960" height="540" fill="#0f1419"/>
<text x="48" y="48" fill="#e8eef5" font-family="Segoe UI,Arial" font-size="22" font-weight="700">Perry — Request Flow (Vite proxy)</text>
<rect x="40" y="200" width="120" height="60" rx="10" fill="#2d4a3e" stroke="#5b9fd4" stroke-width="2"/>
<text x="100" y="236" fill="#e8eef5" font-family="Segoe UI,Arial" font-size="14" text-anchor="middle">Browser</text>
<rect x="220" y="200" width="140" height="60" rx="10" fill="#3d4a1e" stroke="#5b9fd4" stroke-width="2"/>
<text x="290" y="236" fill="#e8eef5" font-family="Segoe UI,Arial" font-size="14" text-anchor="middle">Vite proxy</text>
<rect x="440" y="80" width="150" height="50" rx="10" fill="#1e3a5f" stroke="#5b9fd4" stroke-width="2"/>
<text x="515" y="111" fill="#e8eef5" font-family="Segoe UI,Arial" font-size="14" text-anchor="middle">/ → SPA</text>
<rect x="440" y="150" width="150" height="50" rx="10" fill="#1e3a5f" stroke="#5b9fd4" stroke-width="2"/>
<text x="515" y="181" fill="#e8eef5" font-family="Segoe UI,Arial" font-size="14" text-anchor="middle">/api → Product</text>
<rect x="440" y="220" width="150" height="50" rx="10" fill="#1e3a5f" stroke="#5b9fd4" stroke-width="2"/>
<text x="515" y="251" fill="#e8eef5" font-family="Segoe UI,Arial" font-size="14" text-anchor="middle">/auth-api</text>
<rect x="440" y="290" width="150" height="50" rx="10" fill="#1e3a5f" stroke="#5b9fd4" stroke-width="2"/>
<text x="515" y="321" fill="#e8eef5" font-family="Segoe UI,Arial" font-size="14" text-anchor="middle">/users-api</text>
<rect x="440" y="360" width="150" height="50" rx="10" fill="#1e3a5f" stroke="#5b9fd4" stroke-width="2"/>
<text x="515" y="391" fill="#e8eef5" font-family="Segoe UI,Arial" font-size="14" text-anchor="middle">/uploads</text>
<rect x="680" y="200" width="140" height="60" rx="10" fill="#1e3a5f" stroke="#5b9fd4" stroke-width="2"/>
<text x="750" y="236" fill="#e8eef5" font-family="Segoe UI,Arial" font-size="14" text-anchor="middle">Backends</text>
</svg>
