<svg width="32" height="32" viewBox="0 0 32 32" fill="none" xmlns="http://www.w3.org/2000/svg">
<path d="M21.0079 21.24V15.168C21.0079 14.752 21.3439 14.416 21.7599 14.416H27.2479C27.6639 14.416 27.9999 14.752 27.9999 15.168V25.168C27.9999 25.584 27.6639 25.92 27.2479 25.92H20.9519H11.0399H4.74394C4.32794 25.92 3.99194 25.584 3.99194 25.168V15.168C3.99194 14.752 4.32794 14.416 4.74394 14.416H10.2319C10.6479 14.416 10.9839 14.752 10.9839 15.168V21.24" stroke="#0E2042" stroke-width="1.5" stroke-linecap="round" stroke-linejoin="round"/>
<path d="M7.13599 12.1361V7.20008C7.13599 6.58408 7.52799 6.08008 8.00799 6.08008H24C24.48 6.08008 24.872 6.57608 24.872 7.20008V12.1361" stroke="#0E2042" stroke-width="1.5" stroke-linecap="round" stroke-linejoin="round"/>
<path d="M13.528 16.4473H18.472" stroke="#0E2042" stroke-width="1.5" stroke-linecap="round" stroke-linejoin="round"/>
<path d="M13.528 19.9199H18.472" stroke="#0E2042" stroke-width="1.5" stroke-linecap="round" stroke-linejoin="round"/>
</svg>
